<svg width="72" height="72" viewBox="0 0 72 72" fill="none" xmlns="http://www.w3.org/2000/svg">
<path d="M26.4546 20.3455C26.4546 17.3932 28.8478 15 31.8 15C34.7523 15 37.1455 17.3932 37.1455 20.3455V22.6364H26.4546V20.3455Z" fill="white"/>
<path d="M31.8 15C34.7523 15 37.1455 17.3932 37.1455 20.3455V22.6364H31.8V15Z" fill="#F0F0F0"/>
<path d="M49.3635 34.8546H51.6544C54.6066 34.8546 56.9999 37.2478 56.9999 40.2C56.9999 43.1522 54.6066 45.5455 51.6544 45.5455H49.3635V34.8546Z" fill="#F0F0F0"/>
<path d="M49.3633 56.9996H15V45.5455H17.291C20.2432 45.5455 22.6367 43.152 22.6367 40.1998C22.6366 37.2477 20.2431 34.8542 17.291 34.8541H15V22.6364H49.3633V56.9996Z" fill="white"/>
<path d="M31.8 22.6364H49.3637V57H31.8V22.6364Z" fill="#F0F0F0"/>
<circle cx="31.7999" cy="35.8091" r="4.00909" fill="#394454"/>
<path d="M31.7999 31.8C32.3263 31.8 32.8477 31.9037 33.3341 32.1052C33.8205 32.3066 34.2624 32.602 34.6347 32.9742C35.007 33.3465 35.3023 33.7885 35.5038 34.2749C35.7053 34.7613 35.809 35.2826 35.809 35.8091C35.809 36.3356 35.7053 36.8569 35.5038 37.3433C35.3023 37.8297 35.007 38.2717 34.6347 38.6439C34.2624 39.0162 33.8205 39.3115 33.3341 39.513C32.8477 39.7145 32.3263 39.8182 31.7999 39.8182L31.7999 35.8091L31.7999 31.8Z" fill="#242B36"/>
<path d="M24.9272 47.8364C24.9272 44.0406 28.0043 40.9636 31.8 40.9636C35.5957 40.9636 38.6727 44.0406 38.6727 47.8364H24.9272Z" fill="#394454"/>
<path d="M31.8 40.9636C35.5958 40.9636 38.6728 44.0406 38.6728 47.8364H31.8V40.9636Z" fill="#242B36"/>
</svg>
